<?xml version="1.0" standalone="no"?>
<!DOCTYPE svg PUBLIC "-//W3C//DTD SVG 20010904//EN"
 "http://www.w3.org/TR/2001/REC-SVG-20010904/DTD/svg10.dtd">
<svg version="1.0" xmlns="http://www.w3.org/2000/svg"
 width="818.000000pt" height="540.000000pt" viewBox="0 0 818.000000 540.000000"
 preserveAspectRatio="xMidYMid meet">

<g transform="translate(0.000000,540.000000) scale(0.100000,-0.100000)"
fill="#000000" stroke="none">
<path d="M17 5389 c-16 -9 -17 -149 -17 -2700 l0 -2690 2088 4 c1898 3 2098 5
2211 20 189 26 499 92 487 104 -2 2 -43 -6 -92 -17 -182 -43 -340 -61 -569
-65 l-220 -3 195 8 c206 8 303 19 465 51 494 100 958 343 1319 689 95 91 211
223 295 333 28 37 51 61 51 52 0 -22 -94 -146 -200 -264 -161 -179 -428 -402
-622 -519 -42 -25 -76 -48 -74 -50 6 -5 221 124 283 169 189 139 420 359 542
517 35 45 66 82 68 82 33 0 -119 -194 -272 -345 -139 -138 -242 -221 -415
-337 -214 -142 -479 -265 -731 -337 -101 -29 -318 -76 -389 -84 -19 -2 818 -3
1860 -3 l1895 1 3 2680 2 2680 -21 18 c-20 16 -121 17 -1818 16 l-1796 -1 95
-22 c416 -100 778 -273 1091 -522 115 -91 324 -298 420 -416 65 -80 79 -104
82 -137 2 -23 1 -45 -3 -51 -3 -5 -36 30 -72 78 -37 48 -88 110 -114 137 -52
56 -41 36 22 -40 62 -75 138 -186 153 -222 10 -25 23 -223 15 -223 -1 0 -20
32 -43 70 -116 196 -278 405 -402 520 -406 378 -798 580 -1334 685 -107 21
-171 27 -368 32 -245 6 -241 7 -490 -38 -313 -57 -656 -195 -922 -372 -264
-175 -520 -420 -683 -654 -31 -45 -59 -82 -62 -83 -3 0 -5 40 -5 89 1 101 -7
85 140 266 93 113 266 284 382 376 300 239 668 417 1045 504 l103 24 -1780 0
c-1192 0 -1786 -3 -1798 -10z m4143 -1305 c36 -109 85 -235 108 -280 45 -86
123 -173 179 -199 l34 -16 -25 -30 c-94 -111 -21 -270 121 -269 47 1 94 25
125 65 18 23 23 43 24 94 l1 64 74 36 74 36 0 -291 0 -291 -110 29 c-218 55
-417 78 -686 78 -269 0 -456 -22 -676 -79 l-113 -29 0 289 c0 159 2 289 5 289
2 0 37 -16 77 -36 l73 -36 -3 -56 c-3 -47 1 -63 20 -92 43 -65 132 -88 204
-54 91 43 115 181 44 253 l-28 27 45 24 c62 33 135 118 183 214 22 45 68 168
102 274 34 106 67 191 72 189 5 -2 39 -93 76 -203z m446 -1500 c44 -66 -34
-549 -152 -949 -20 -66 -40 -124 -45 -130 -13 -13 -14 -19 40 195 79 310 151
702 151 815 0 61 -10 70 -51 50 -87 -45 -231 -215 -412 -486 -68 -101 -130
-185 -140 -187 -27 -5 -30 36 -11 184 21 175 25 395 6 402 -33 11 -128 -136
-172 -268 -50 -148 -75 -360 -50 -426 17 -43 2 -41 -16 2 -13 32 -15 60 -11
149 8 143 36 256 96 381 78 164 151 226 181 153 16 -38 8 -257 -15 -399 -25
-158 -19 -183 24 -107 81 143 288 424 399 541 49 50 126 106 149 106 7 0 20
-11 29 -26z m-1055 -73 c32 -33 36 -58 15 -100 -15 -28 -63 -57 -75 -45 -3 4
0 9 6 11 26 9 52 39 59 65 5 21 0 33 -21 54 -25 25 -30 26 -108 22 -127 -8
-269 -66 -358 -146 -60 -54 -81 -92 -81 -144 1 -55 36 -109 135 -207 l85 -84
74 27 c113 40 301 96 323 95 11 0 -36 -17 -105 -38 -129 -38 -270 -89 -270
-97 0 -3 18 -27 39 -54 22 -27 45 -66 51 -86 30 -90 -19 -171 -119 -201 -123
-35 -261 19 -261 104 0 67 51 126 170 198 36 21 67 40 69 41 2 2 -37 46 -86
98 -50 51 -100 115 -113 141 -58 121 20 232 224 318 104 44 152 55 239 56 74
1 80 -1 108 -28z m-622 -49 c40 -189 10 -432 -75 -593 -34 -64 -138 -178 -151
-166 -3 3 12 21 33 39 123 108 205 370 191 610 -3 53 -13 113 -22 133 -19 46
-19 51 -1 36 8 -7 19 -33 25 -59z m-130 14 c-11 -9 -99 -15 -99 -6 0 6 23 10
52 10 28 0 49 -2 47 -4z m2431 -300 c0 -8 -4 -18 -10 -21 -5 -3 -10 3 -10 14
0 12 5 21 10 21 6 0 10 -6 10 -14z m-515 -52 c20 -8 45 -56 45 -89 0 -14 4
-25 8 -25 34 0 129 26 135 37 6 10 12 11 20 4 13 -10 78 12 76 26 -3 19 2 33
12 33 7 0 9 -9 6 -21 -4 -15 1 -22 17 -29 38 -14 114 -23 127 -14 8 4 33 9 57
10 28 1 39 -2 31 -7 -8 -5 -24 -9 -36 -9 -26 0 -43 -27 -43 -65 0 -26 2 -27
35 -21 66 13 190 58 205 75 8 9 24 23 35 31 20 15 20 14 1 -8 -15 -17 -16 -22
-5 -23 8 0 4 -5 -8 -11 -27 -13 -38 -39 -21 -50 10 -6 10 -8 -1 -8 -22 0 6
-28 32 -32 12 -2 17 -6 11 -10 -21 -14 -59 16 -62 48 l-3 32 -91 -30 c-50 -16
-103 -28 -117 -26 -23 3 -26 7 -26 45 l0 41 -55 7 c-30 4 -63 11 -73 17 -15 7
-26 1 -58 -31 -44 -46 -58 -50 -66 -21 -3 11 -8 20 -12 19 -3 0 -33 -6 -65
-13 l-60 -12 -19 -58 c-38 -114 -137 -178 -166 -107 -16 36 -6 93 25 150 17
30 21 48 14 55 -16 16 -12 54 10 76 20 20 54 26 85 14z m-2003 -636 c2 -21 0
-38 -4 -38 -4 0 -8 21 -7 48 1 52 6 48 11 -10z m3522 -86 c-1 -76 -5 -95 -23
-121 -12 -17 -20 -35 -16 -40 3 -5 0 -13 -6 -17 -8 -4 -9 -3 -5 4 15 25 -3 10
-20 -15 -17 -27 -17 -28 1 -13 26 20 -44 -77 -129 -180 -220 -265 -497 -485
-808 -641 -76 -38 -141 -69 -145 -69 -5 1 10 10 32 22 57 29 205 119 205 123
0 3 -8 2 -17 -2 -10 -3 36 30 102 74 201 133 409 312 527 453 58 70 128 170
128 184 0 6 -42 -30 -92 -79 -166 -161 -185 -174 -87 -60 132 153 266 341 319
444 12 24 25 39 28 33 4 -5 7 -51 6 -100z m-2594 -149 c0 -13 -3 -14 -12 -5
-7 7 -20 12 -30 12 -13 0 -18 -8 -18 -31 0 -28 3 -31 24 -27 16 3 23 1 19 -7
-2 -7 -13 -10 -25 -7 -18 4 -20 1 -16 -26 4 -29 2 -32 -21 -32 -19 0 -22 3
-13 12 16 16 16 100 0 116 -9 9 0 12 40 12 42 0 52 -3 52 -17z m100 2 c-8 -10
-11 -35 -8 -70 4 -45 2 -55 -11 -55 -13 0 -16 13 -16 70 0 67 1 70 24 70 20 0
21 -2 11 -15z m110 -5 c-6 -12 -10 -40 -8 -63 3 -35 7 -43 26 -45 13 -2 30 2
39 10 14 11 15 11 11 -2 -3 -10 -21 -16 -54 -18 l-49 -3 0 71 c0 66 1 70 23
70 20 0 21 -3 12 -20z m185 -40 c10 -22 21 -40 25 -40 4 0 17 23 30 50 13 28
27 50 31 50 4 0 9 -32 11 -70 3 -62 1 -70 -15 -70 -10 0 -15 5 -12 11 4 5 4
22 0 37 l-7 27 -19 -37 c-11 -21 -22 -38 -24 -38 -3 0 -14 18 -25 40 -11 22
-23 40 -26 40 -3 0 -4 -18 -2 -40 3 -34 1 -40 -16 -40 -16 0 -17 3 -8 12 7 7
12 38 12 71 0 68 13 67 45 -3z m289 23 c3 -21 10 -45 16 -53 9 -13 11 -13 20
0 13 21 12 64 -2 78 -9 9 -7 12 10 12 13 0 22 -6 22 -15 0 -8 7 -33 17 -56
l16 -42 17 44 c10 24 15 49 13 56 -3 8 3 13 14 13 18 0 18 -4 -8 -57 -16 -32
-29 -64 -29 -70 0 -26 -18 -12 -33 25 l-15 37 -20 -45 -20 -45 -12 33 c-7 19
-23 53 -35 78 l-22 44 22 0 c18 0 24 -7 29 -37z m334 21 c27 -19 30 -78 5
-106 -16 -18 -68 -24 -89 -10 -21 13 -34 52 -28 77 12 49 69 69 112 39z
m-1433 -59 c0 -40 -4 -65 -11 -65 -6 0 -9 13 -6 30 4 29 3 30 -34 32 l-39 1
39 4 c36 4 38 6 34 34 -3 17 0 29 6 29 7 0 11 -25 11 -65z m108 13 c-1 -29 3
-58 9 -65 8 -10 4 -13 -17 -13 -23 0 -25 2 -15 15 7 8 11 35 8 65 -2 30 1 50
7 50 6 0 10 -22 8 -52z m1447 21 c0 -26 3 -30 22 -27 26 3 37 36 16 50 -10 7
-8 8 7 6 25 -4 33 -46 11 -54 -14 -5 -12 -11 9 -36 14 -17 23 -33 20 -36 -3
-4 -17 8 -31 26 -33 42 -58 43 -52 2 3 -23 1 -30 -11 -30 -13 0 -16 12 -16 65
0 45 4 65 13 65 7 0 12 -13 12 -31z m192 -34 c2 -39 -1 -65 -7 -65 -6 0 -10
28 -10 65 0 84 12 84 17 0z m-1587 5 c-3 -5 -12 -10 -18 -10 -7 0 -6 4 3 10
19 12 23 12 15 0z m20 -59 c-3 -6 -16 -11 -28 -11 -21 0 -21 1 3 13 27 15 36
14 25 -2z m-1434 -48 c13 -16 12 -17 -3 -4 -17 13 -22 21 -14 21 2 0 10 -8 17
-17z m89 -108 c13 -14 21 -25 18 -25 -2 0 -15 11 -28 25 -13 14 -21 25 -18 25
2 0 15 -11 28 -25z m90 -100 c35 -36 62 -65 59 -65 -2 0 -34 29 -69 65 -35 36
-62 65 -59 65 2 0 34 -29 69 -65z m3550 -18 c0 -2 -10 -12 -22 -23 l-23 -19
19 23 c18 21 26 27 26 19z m-3410 -122 c35 -36 62 -65 59 -65 -2 0 -34 29 -69
65 -35 36 -62 65 -59 65 2 0 34 -29 69 -65z m100 -90 c13 -14 21 -25 18 -25
-2 0 -15 11 -28 25 -13 14 -21 25 -18 25 2 0 15 -11 28 -25z m101 -82 c13 -16
12 -17 -3 -4 -10 7 -18 15 -18 17 0 8 8 3 21 -13z m40 -30 c13 -16 12 -17 -3
-4 -17 13 -22 21 -14 21 2 0 10 -8 17 -17z m259 -169 c0 -2 -9 0 -20 6 -11 6
-20 13 -20 16 0 2 9 0 20 -6 11 -6 20 -13 20 -16z m2125 16 c-3 -5 -14 -10
-23 -9 -14 0 -13 2 3 9 27 11 27 11 20 0z m-1758 -184 c62 -25 158 -59 215
-75 57 -16 96 -30 87 -30 -29 -1 -221 59 -330 104 -107 44 -309 141 -309 149
0 3 51 -19 113 -49 63 -29 163 -74 224 -99z m-77 124 c8 -5 11 -10 5 -10 -5 0
-17 5 -25 10 -8 5 -10 10 -5 10 6 0 17 -5 25 -10z m50 -20 c8 -5 11 -10 5 -10
-5 0 -17 5 -25 10 -8 5 -10 10 -5 10 6 0 17 -5 25 -10z m50 -20 c8 -5 11 -10
5 -10 -5 0 -17 5 -25 10 -8 5 -10 10 -5 10 6 0 17 -5 25 -10z m100 -35 c19 -7
28 -14 20 -14 -8 0 -28 6 -45 14 -39 17 -21 18 25 0z m843 -12 c-7 -2 -21 -2
-30 0 -10 3 -4 5 12 5 17 0 24 -2 18 -5z m-728 -23 c13 -5 14 -9 5 -9 -8 0
-24 4 -35 9 -13 5 -14 9 -5 9 8 0 24 -4 35 -9z m75 -20 c20 -6 21 -8 5 -8 -11
0 -29 3 -40 8 -25 11 1 11 35 0z m63 -17 c-7 -2 -19 -2 -25 0 -7 3 -2 5 12 5
14 0 19 -2 13 -5z m44 -9 c-3 -3 -12 -4 -19 -1 -8 3 -5 6 6 6 11 1 17 -2 13
-5z m1070 -30 c-3 -3 -12 -4 -19 -1 -8 3 -5 6 6 6 11 1 17 -2 13 -5z m-50 -10
c-3 -3 -12 -4 -19 -1 -8 3 -5 6 6 6 11 1 17 -2 13 -5z m-50 -10 c-3 -3 -12 -4
-19 -1 -8 3 -5 6 6 6 11 1 17 -2 13 -5z m-50 -10 c-3 -3 -12 -4 -19 -1 -8 3
-5 6 6 6 11 1 17 -2 13 -5z m-64 -11 c-7 -2 -21 -2 -30 0 -10 3 -4 5 12 5 17
0 24 -2 18 -5z m-926 -9 c-3 -3 -12 -4 -19 -1 -8 3 -5 6 6 6 11 1 17 -2 13 -5z
m841 -1 c-10 -2 -26 -2 -35 0 -10 3 -2 5 17 5 19 0 27 -2 18 -5z m-165 -10
c-40 -2 -107 -2 -150 0 -43 1 -10 3 72 3 83 0 118 -2 78 -3z"/>
<path d="M4066 4008 c-6 -50 -50 -330 -82 -520 l-14 -87 54 -110 c39 -78 57
-107 64 -98 5 7 31 54 57 106 42 85 46 99 40 140 -5 41 -57 374 -86 554 -6 37
-14 67 -19 67 -4 0 -10 -24 -14 -52z m49 -275 c33 -288 32 -347 -5 -443 -16
-44 -30 -69 -34 -60 -47 126 -56 159 -56 197 0 46 45 462 57 523 8 45 8 45 38
-217z"/>
<path d="M3115 1868 c-82 -49 -149 -114 -159 -152 -17 -68 50 -120 154 -120
110 0 200 60 200 133 0 48 -83 181 -113 181 -7 0 -43 -19 -82 -42z"/>
<path d="M4652 2104 c-22 -15 -30 -48 -13 -59 5 -3 12 -1 16 5 3 5 13 10 22
10 13 0 13 -3 3 -15 -16 -19 -12 -23 30 -31 l33 -7 -6 39 c-4 22 -16 47 -28
57 -26 21 -29 21 -57 1z"/>
<path d="M4931 2031 c-7 -5 -12 -14 -9 -21 2 -8 11 -5 28 9 17 14 20 20 10 21
-8 0 -21 -4 -29 -9z"/>
<path d="M4629 1977 c-26 -43 -42 -104 -35 -133 13 -49 79 -17 116 56 16 31
30 90 21 90 -3 0 -23 4 -44 9 -36 9 -39 7 -58 -22z"/>
<path d="M4575 1236 c-15 -22 -15 -28 -1 -61 14 -33 19 -36 48 -33 31 3 33 6
36 45 2 33 -1 44 -20 57 -31 22 -45 20 -63 -8z"/>
<path d="M4458 5373 c6 -2 18 -2 25 0 6 3 1 5 -13 5 -14 0 -19 -2 -12 -5z"/>
<path d="M4655 5330 c151 -38 282 -81 383 -126 30 -13 57 -22 59 -20 6 5 -157
72 -261 108 -89 30 -287 78 -316 77 -8 0 53 -17 135 -39z"/>
<path d="M5131 5166 c10 -9 109 -56 109 -51 0 5 -95 55 -106 55 -4 0 -5 -2 -3
-4z"/>
<path d="M5260 5100 c8 -5 58 -36 110 -67 52 -31 145 -93 205 -138 116 -86
305 -250 305 -264 0 -5 11 -16 25 -25 49 -32 15 10 -80 98 -127 118 -199 175
-330 261 -89 59 -291 175 -235 135z"/>
<path d="M4815 140 c-13 -5 -14 -9 -5 -9 8 0 24 4 35 9 13 5 14 9 5 9 -8 0
-24 -4 -35 -9z"/>
</g>
</svg>
